<svg id="组_289" data-name="组 289" xmlns="http://www.w3.org/2000/svg" width="59.034" height="59.035" viewBox="0 0 59.034 59.035">
  <path id="路径_256" data-name="路径 256" d="M84.838,38.82a.711.711,0,0,0-.809.13l-.806.806-1.889,1.889-.541.541-.655-.4a22.786,22.786,0,0,0-6.517-2.673l-.751-.179V34.3a.567.567,0,0,0-.482-.577,29.494,29.494,0,0,0-9.619.021h-.017a.5.5,0,0,0-.281.142.648.648,0,0,0-.178.458c0,.225,0,.453,0,.682.005.472.01.959,0,1.453v2.5l-.741.185a23.487,23.487,0,0,0-6.525,2.72l-.656.4-.543-.543-.6-.6-.345-.346-.138-.138-.553-.553-1.083-1.083a.543.543,0,0,0-.717-.078l-.011.008-.011.008a29.353,29.353,0,0,0-6.649,6.649.585.585,0,0,0,.1.781l.014.013.014.014,1.037,1.037.553.553.138.138.346.346.6.6.541.541-.4.655a24.328,24.328,0,0,0-2.724,6.534l-.189.734H41.249c-.225,0-.453,0-.682,0-.477.005-.97.011-1.469-.005a.553.553,0,0,0-.4.172.622.622,0,0,0-.173.321,29.1,29.1,0,0,0-.019,9.547.606.606,0,0,0,.571.491c.763-.015,1.529-.01,2.27,0,.369,0,.736,0,1.1,0h1.27l.185.741a24.8,24.8,0,0,0,2.682,6.538l.382.652-.534.534-1.889,1.889-.875.875a.546.546,0,0,0-.058.736l.007.01.007.01a31.9,31.9,0,0,0,3.13,3.667A30.453,30.453,0,0,0,50.4,86.851a.658.658,0,0,0,.748-.05l.21-.21L53,84.956l.9-.9.536-.536.653.386a24.368,24.368,0,0,0,6.6,2.7l.744.183v.767c0,.386,0,.77-.005,1.153,0,.744-.01,1.513,0,2.283v.019a3.336,3.336,0,0,0,.013.392l.005.038,0,.039a.547.547,0,0,0,.47.524,29.8,29.8,0,0,0,9.542-.045h.016a.438.438,0,0,0,.233-.131.811.811,0,0,0,.227-.58c-.012-.393-.012-.787-.012-1.168s0-.745-.011-1.111v-.038l0-.038c.014-.293.009-.6,0-.9,0-.162-.005-.321-.005-.478v-.737l.709-.2c.134-.038.271-.073.411-.108.2-.05.384-.1.561-.156l.024-.008.024-.007a.519.519,0,0,0,.232-.135.612.612,0,0,0,.148-.6.531.531,0,0,0-.266-.329.622.622,0,0,0-.454-.053,14.973,14.973,0,0,1-2.1.507.565.565,0,0,0-.27.152.594.594,0,0,0-.175.38l0,.037-.005.036-.036.254V86.6c.023.771.023,1.569.023,2.342v1.981l-.87.1a27.748,27.748,0,0,1-6.448,0l-.84-.1-.017-.846c-.023-1.127,0-2.233.021-3.4V86.6a2.677,2.677,0,0,0-.017-.4l-.007-.028-.006-.031a.543.543,0,0,0-.438-.438,22.875,22.875,0,0,1-8.456-3.492.6.6,0,0,0-.742.066L53.8,82.4l-1.659,1.659-.875.875-.61.61-.681-.53a25.671,25.671,0,0,1-2.418-2.177,26.963,26.963,0,0,1-2.174-2.461l-.534-.682.612-.612c.753-.753,1.531-1.531,2.3-2.256l.024-.023.026-.021c.038-.031.076-.065.113-.1a1.694,1.694,0,0,0,.291-.388l0-.009,0-.009a.528.528,0,0,0-.014-.586l-.008-.011-.008-.011A22.71,22.71,0,0,1,44.786,67.4a.618.618,0,0,0-.439-.477l-.025-.006-.024-.007a1.965,1.965,0,0,0-.657-.034l-.033,0H42.47c-.236,0-.469,0-.7-.005-.448-.005-.871-.01-1.293,0l-.9.031-.108-.89A27.229,27.229,0,0,1,39.5,59.5l.1-.86h1.65c.277,0,.551,0,.822-.005.556-.005,1.081-.01,1.6.006h.017a1.457,1.457,0,0,0,.76-.128l.009,0,.009,0a.573.573,0,0,0,.158-.113.712.712,0,0,0,.183-.326,23.28,23.28,0,0,1,3.451-8.241.579.579,0,0,0,.024-.615l-.019-.029-.017-.03a.981.981,0,0,0-.271-.317l-.016-.013-.015-.013a15.672,15.672,0,0,1-1.259-1.256l-.488-.488-.138-.138-.415-.414-.161-.161-.619-.619.546-.683a28.185,28.185,0,0,1,4.461-4.46l.683-.547.619.619.161.161.392.392.138.138.507.507c.388.388.79.79,1.236,1.282a1.547,1.547,0,0,0,.344.259l.025.014.025.016a.609.609,0,0,0,.624-.018,22.745,22.745,0,0,1,8.245-3.452.668.668,0,0,0,.312-.172.7.7,0,0,0,.126-.176,1.567,1.567,0,0,0,.134-.72v-.023c-.023-.824-.024-1.66,0-2.484V34.743l.86-.1a28.3,28.3,0,0,1,6.514-.024l.87.1V38.72a5.726,5.726,0,0,0,.052.8.626.626,0,0,0,.469.409,22.712,22.712,0,0,1,8.249,3.407.625.625,0,0,0,.635.03,1.553,1.553,0,0,0,.363-.264,1.129,1.129,0,0,0,.079-.087l.024-.031.027-.028c.747-.794,1.525-1.573,2.278-2.325l.61-.61.681.53a27.088,27.088,0,0,1,2.441,2.2c.7.7,1.426,1.506,2.16,2.4l.564.685-.627.627-.875.875-1.659,1.659-.115.115a.59.59,0,0,0-.053.761,23.824,23.824,0,0,1,3.476,8.42l0,.008v.008a.543.543,0,0,0,.438.438l.03.006.029.007a2.282,2.282,0,0,0,.4.017c.761-.015,1.531-.01,2.276-.005.379,0,.76.005,1.144.005h.875l.1.87a29.2,29.2,0,0,1,0,6.436l-.1.87H93.544c-.244,0-.485,0-.725.005-.475,0-.966.01-1.456-.005H91.3l-.308.038-.028,0-.028,0a.541.541,0,0,0-.484.435,16.592,16.592,0,0,1-.531,2.088.623.623,0,0,0,.053.454.531.531,0,0,0,.329.266.612.612,0,0,0,.6-.148.523.523,0,0,0,.135-.232l.007-.024.008-.024c.048-.144.089-.3.133-.461.049-.184.1-.374.167-.576l.223-.668h1.995c.831,0,1.617,0,2.432.023.066,0,.213,0,.283-.006a.646.646,0,0,0,.3-.168.554.554,0,0,0,.161-.3l0-.012,0-.012a28.989,28.989,0,0,0,.022-9.517.545.545,0,0,0-.495-.471l-.054,0-.053-.008a3.856,3.856,0,0,0-.438-.013c-.388,0-.773,0-1.157-.005-.769-.005-1.5-.01-2.233.005l-.783.016-.186-.76a24.661,24.661,0,0,0-2.7-6.6l-.382-.652.534-.534.9-.9,1.635-1.635.208-.207a.591.591,0,0,0,.053-.751,30.6,30.6,0,0,0-6.777-6.774Z" transform="translate(-38.12 -33.335)" fill="#fff"/>
  <path id="路径_257" data-name="路径 257" d="M128.373,115.15,107.212,94.2a1.383,1.383,0,0,0-.568-.344l-8.7-2.678a1.6,1.6,0,0,0-.283-.054l-.035,0h-.063a1.345,1.345,0,0,0-.925.327l-.027.028-.029.032-.032.029-.042.04h0a1.171,1.171,0,0,0-.36.838v.036a1.352,1.352,0,0,0,.059.452l0,.01,0,.01,2.68,8.709a1.314,1.314,0,0,0,.344.575l20.957,21.125a3.926,3.926,0,0,0,5.525.123l1.464-1.381,1.322-1.4A3.96,3.96,0,0,0,128.373,115.15Zm-22.109-20.3-1.044,1.044-4.333,4.333-1.039,1.039-.437-1.4L97.463,93.6l-.5-1.606,1.608.493,6.28,1.926" transform="translate(-70.943 -65.502)" fill="#fff"/>
</svg>
