<svg id="组_248" data-name="组 248" xmlns="http://www.w3.org/2000/svg" width="58.631" height="59.109" viewBox="0 0 58.631 59.109">
  <rect id="矩形_142" data-name="矩形 142" width="11.843" height="16.906" rx="0.739" fill="#fff"/>
  <rect id="矩形_143" data-name="矩形 143" width="11.843" height="16.906" rx="0.739" transform="translate(46.788)" fill="#fff"/>
  <rect id="矩形_144" data-name="矩形 144" width="11.843" height="16.906" rx="0.739" transform="translate(0 42.203)" fill="#fff"/>
  <rect id="矩形_145" data-name="矩形 145" width="11.843" height="16.906" rx="0.739" transform="translate(46.788 42.203)" fill="#fff"/>
  <path id="路径_158" data-name="路径 158" d="M809.837,202.044h11.132a.717.717,0,0,0,0-1.433H809.837a3.78,3.78,0,0,0-7.423,0h-11.13a.717.717,0,1,0,0,1.433h11.13a3.784,3.784,0,0,0,2.995,2.993v8.171h-1a2.724,2.724,0,0,0-2.72,2.72v13.244a2.725,2.725,0,0,0,2.72,2.722h1v7.932a3.784,3.784,0,0,0-2.995,2.993h-11.13a.717.717,0,1,0,0,1.433h11.13a3.779,3.779,0,0,0,7.423,0h11.132a.717.717,0,0,0,0-1.433H809.837a3.784,3.784,0,0,0-2.995-2.993V231.9h1a2.723,2.723,0,0,0,2.718-2.722V215.929a2.722,2.722,0,0,0-2.718-2.72h-1v-8.171A3.784,3.784,0,0,0,809.837,202.044Zm-1.456,41.492a2.256,2.256,0,1,1-2.255-2.253A2.259,2.259,0,0,1,808.381,243.536Zm-.541-28.8a1.191,1.191,0,0,1,1.189,1.191v13.244a1.192,1.192,0,0,1-1.189,1.193h-3.43a1.194,1.194,0,0,1-1.191-1.193V215.929a1.193,1.193,0,0,1,1.191-1.191Zm-1.714-11.156a2.254,2.254,0,1,1,2.255-2.253A2.257,2.257,0,0,1,806.126,203.582Z" transform="translate(-776.704 -192.882)" fill="#fff"/>
</svg>
