<svg xmlns="http://www.w3.org/2000/svg" width="57.218" height="57.151" viewBox="0 0 57.218 57.151">
  <g id="组_259" data-name="组 259" transform="translate(0)">
    <path id="路径_170" data-name="路径 170" d="M785.024,535.6a1.008,1.008,0,0,1-1.008-.99,28.726,28.726,0,0,1,17.817-26.984,28.571,28.571,0,0,1,37.2,15.754,1.009,1.009,0,1,1-1.871.756,26.537,26.537,0,0,0-51.133,10.438,1.009,1.009,0,0,1-.992,1.026Z" transform="translate(-784.012 -505.527)" fill="#fff"/>
  </g>
  <g id="组_260" data-name="组 260" transform="translate(2.117 27.087)">
    <path id="路径_171" data-name="路径 171" d="M811.59,549.023a28.619,28.619,0,0,1-26.518-17.845,1.009,1.009,0,0,1,1.871-.756,26.538,26.538,0,0,0,51.135-10.436,1.009,1.009,0,0,1,.992-1.026,1.071,1.071,0,0,1,1.024.992,28.543,28.543,0,0,1-28.5,29.071Z" transform="translate(-784.999 -518.959)" fill="#fff"/>
  </g>
  <path id="路径_172" data-name="路径 172" d="M818.763,525.515v2.176a1,1,0,0,1-.936,1l-2.523.163a10.388,10.388,0,0,1-1.408,3.39l1.67,1.9a1,1,0,0,1-.044,1.369l-1.539,1.539a1,1,0,0,1-1.369.044l-1.9-1.67a10.4,10.4,0,0,1-3.388,1.408l-.165,2.523a1,1,0,0,1-1,.936h-2.176a1,1,0,0,1-1-.936l-.165-2.523a10.427,10.427,0,0,1-3.39-1.408l-1.9,1.67a1,1,0,0,1-1.369-.044l-1.539-1.539a1,1,0,0,1-.044-1.369l1.67-1.9a10.391,10.391,0,0,1-1.407-3.39l-2.523-.163a1,1,0,0,1-.938-1v-2.176a1,1,0,0,1,.938-1l2.523-.163a10.428,10.428,0,0,1,1.407-3.39l-1.67-1.9a1,1,0,0,1,.044-1.371l1.539-1.537a1,1,0,0,1,1.369-.046l1.9,1.67a10.463,10.463,0,0,1,3.39-1.406l.165-2.523a1,1,0,0,1,1-.938h2.176a1,1,0,0,1,1,.938l.165,2.523a10.435,10.435,0,0,1,3.388,1.406l1.9-1.67a1,1,0,0,1,1.369.046l1.539,1.537a1,1,0,0,1,.044,1.371l-1.67,1.9a10.425,10.425,0,0,1,1.408,3.39l2.523.163a1,1,0,0,1,.936,1m-8.677,1.266a5.015,5.015,0,1,0-5.015,5.015,5.015,5.015,0,0,0,5.015-5.015" transform="translate(-776.462 -498.022)" fill="#fff"/>
</svg>
