<svg xmlns="http://www.w3.org/2000/svg" width="69.099" height="51.421" viewBox="0 0 69.099 51.421">
  <path id="路径_156" data-name="路径 156" d="M842.809,104.881h-1.059v9.882H837.1v-6.944a1.973,1.973,0,0,0-1.9-2.032h-5.07a.626.626,0,0,1-.576-.424l-1.187-3.4a1.924,1.924,0,0,0-1.784-1.319h-9.556v-5.56h5.852a1.776,1.776,0,0,0,1.714-1.831V90.609a1.778,1.778,0,0,0-1.714-1.833H804.907a1.78,1.78,0,0,0-1.716,1.833V93.25a1.778,1.778,0,0,0,1.716,1.831h5.96v5.56H796.26a1.886,1.886,0,0,0-1.7,1.118l-1.736,3.671a.6.6,0,0,1-.545.358h-4.45a1.972,1.972,0,0,0-1.9,2.032v6.944h-4.683V103.457a.646.646,0,1,0-1.29,0v30.625a.646.646,0,1,0,1.29,0V122.8h4.683v7.381a1.97,1.97,0,0,0,1.9,2.03h2.61l0,0,.006,0h7.417a.593.593,0,0,1,.47.236l5.46,7.012a1.854,1.854,0,0,0,1.464.733h27.72l0,0,.006,0h2.2a1.971,1.971,0,0,0,1.9-2.03V122.8h4.653v10.472h1.059a6.477,6.477,0,0,0,6.247-6.672V111.551A6.477,6.477,0,0,0,842.809,104.881Zm-30.653-9.8h3.572v5.56h-3.572Zm-30.91,26.345V116.14h4.683v5.285Zm5.973,8.759V107.819a.633.633,0,0,1,.611-.655h1.97v23.672h-1.97A.633.633,0,0,1,787.218,130.184Zm17.57,8.4-5.458-7.01a1.848,1.848,0,0,0-1.464-.735h-6.777V107.165h1.191a1.877,1.877,0,0,0,1.7-1.116l1.734-3.669a.611.611,0,0,1,.549-.361h30.314a.616.616,0,0,1,.576.426l1.187,3.4a1.93,1.93,0,0,0,1.784,1.317h2.219v31.653H805.26A.594.594,0,0,1,804.788,138.581Zm30.4.236h-1.562V107.165h1.562a.635.635,0,0,1,.615.655v7.622l0,.01,0,.01V122.1l0,.01,0,.01v16.042A.634.634,0,0,1,835.191,138.818Zm1.9-17.392V116.14h4.653v5.285Z" transform="translate(-779.956 -88.776)" fill="#fff"/>
</svg>
