<svg xmlns="http://www.w3.org/2000/svg" width="70.514" height="39.304" viewBox="0 0 70.514 39.304">
  <path id="路径_169" data-name="路径 169" d="M837.966,413.744a12.75,12.75,0,0,0-3.624.531l-1.155-3.23a4.622,4.622,0,0,0,2.669.853c1.73,0,2.345-2.505,2.345-4.648s-.615-4.65-2.345-4.65a4.64,4.64,0,0,0-4.464,3.426l-2.147-6.006h-5.737a.714.714,0,1,0,0,1.428h4.73l1.041,2.912H825.42a10.459,10.459,0,0,0-7.374,3.017l-2.179,2.139H793.032a17.046,17.046,0,0,0-12.6,5.585.714.714,0,1,0,1.056.959,15.619,15.619,0,0,1,11.543-5.117h.023a15.594,15.594,0,0,1,15.535,14.878h-2.8a12.788,12.788,0,1,0,0,1.428H810.4A14.105,14.105,0,0,0,822.42,420.6l6.051-9.651h3.162l1.361,3.807a12.786,12.786,0,1,0,4.972-1.007Zm-2.111-9.717c.31,0,.918,1.138.918,3.223a7.537,7.537,0,0,1-.364,2.457c-.194.527-.419.763-.554.763a3.222,3.222,0,0,1,0-6.443ZM793.032,437.9a11.362,11.362,0,1,1,11.326-12.074h-3.8a7.6,7.6,0,1,0,0,1.428h3.8A11.367,11.367,0,0,1,793.032,437.9Zm0-10.646h6.1a6.175,6.175,0,1,1,0-1.428h-6.1a.714.714,0,0,0,0,1.428Zm17.368-1.428h-.386a16.89,16.89,0,0,0-2.1-7.528H822.18l-.967,1.544A12.7,12.7,0,0,1,810.4,425.822Zm12.676-8.956H807.021a17.127,17.127,0,0,0-7.186-5.922h26.952Zm-5.172-7.35,1.142-1.121a9.034,9.034,0,0,1,6.375-2.608h4.369l1.334,3.729Zm20.063,28.38a11.36,11.36,0,0,1-4.488-21.8l1.275,3.571a8.139,8.139,0,1,0,1.348-.48l-1.275-3.567a11.357,11.357,0,1,1,3.141,22.271Zm.674-11.6-2.062-5.762a6.265,6.265,0,1,1-1.34.493l2.056,5.751a.717.717,0,0,0,.672.474.7.7,0,0,0,.24-.042A.716.716,0,0,0,838.64,426.294Z" transform="translate(-780.24 -400.02)" fill="#fff"/>
</svg>
