<svg xmlns="http://www.w3.org/2000/svg" width="51.613" height="63.213" viewBox="0 0 51.613 63.213">
  <g id="组_250" data-name="组 250" transform="translate(0 0)">
    <path id="路径_159" data-name="路径 159" d="M802.235,315.374a12.15,12.15,0,0,1-1.558-1.308H789.413a4.737,4.737,0,0,1-4.731-4.731v-7.465a4.737,4.737,0,0,1,4.731-4.731h11.264a12.27,12.27,0,0,1,1.556-1.308h-12.82a6.047,6.047,0,0,0-6.039,6.039v7.465a6.047,6.047,0,0,0,6.039,6.039Z" transform="translate(-783.374 -273.987)" fill="#fff"/>
    <path id="路径_160" data-name="路径 160" d="M814.971,295.83H802.149a12.275,12.275,0,0,1,1.556,1.308h11.266a4.737,4.737,0,0,1,4.731,4.731v7.465a4.737,4.737,0,0,1-4.731,4.731H803.7a12.151,12.151,0,0,1-1.558,1.308h12.824a6.047,6.047,0,0,0,6.04-6.039v-7.465A6.047,6.047,0,0,0,814.971,295.83Z" transform="translate(-769.398 -273.987)" fill="#fff"/>
    <path id="路径_161" data-name="路径 161" d="M800.277,298.6a4.942,4.942,0,1,0,4.942,4.942A4.944,4.944,0,0,0,800.277,298.6Z" transform="translate(-774.471 -271.926)" fill="#fff"/>
    <path id="路径_162" data-name="路径 162" d="M817.3,309.01a18.516,18.516,0,0,1-26.157,0,.654.654,0,0,0-.926.925,19.828,19.828,0,0,0,28.01,0,.654.654,0,1,0-.926-.925Z" transform="translate(-778.419 -264.317)" fill="#fff"/>
    <path id="路径_163" data-name="路径 163" d="M817.768,296.992a.648.648,0,0,0,.462-.192.655.655,0,0,0,0-.925,19.827,19.827,0,0,0-28.01,0,.654.654,0,0,0,.926.925,18.52,18.52,0,0,1,26.157,0A.649.649,0,0,0,817.768,296.992Z" transform="translate(-778.419 -278.265)" fill="#fff"/>
    <path id="路径_164" data-name="路径 164" d="M788.789,311.369a.656.656,0,1,0-.928.926,25.657,25.657,0,0,0,36.24,0,.656.656,0,1,0-.928-.926A24.339,24.339,0,0,1,788.789,311.369Z" transform="translate(-780.175 -262.561)" fill="#fff"/>
    <path id="路径_165" data-name="路径 165" d="M823.635,295.36a.654.654,0,0,0,.464-1.116,25.655,25.655,0,0,0-36.238,0,.655.655,0,0,0,.928.925,24.335,24.335,0,0,1,34.382,0A.66.66,0,0,0,823.635,295.36Z" transform="translate(-780.175 -280.746)" fill="#fff"/>
    <path id="路径_166" data-name="路径 166" d="M829.217,313.8a30.339,30.339,0,0,1-42.857,0,.654.654,0,1,0-.926.925,31.652,31.652,0,0,0,44.71,0,.654.654,0,1,0-.926-.925Z" transform="translate(-781.983 -260.753)" fill="#fff"/>
    <path id="路径_167" data-name="路径 167" d="M786.361,293.5a30.3,30.3,0,0,1,42.855,0,.654.654,0,0,0,.926-.925,31.608,31.608,0,0,0-44.708,0,.654.654,0,0,0,.926.925Z" transform="translate(-781.982 -283.309)" fill="#fff"/>
    <path id="路径_168" data-name="路径 168" d="M802.338,295.83a9.772,9.772,0,1,0,9.771,9.773A9.784,9.784,0,0,0,802.338,295.83Zm0,18.235A8.463,8.463,0,1,1,810.8,305.6,8.474,8.474,0,0,1,802.338,314.065Z" transform="translate(-776.531 -273.987)" fill="#fff"/>
  </g>
</svg>
